<?xml version="1.0" encoding="UTF-8"?>
<svg class="" width="512" height="512" enable-background="new 0 0 512 512" version="1.1" viewBox="0 0 480 480" xml:space="preserve" xmlns="http://www.w3.org/2000/svg">
<g xmlns="http://www.w3.org/2000/svg">
	
		<path class="" d="m240 0c-132.55 0-240 107.45-240 240s107.45 240 240 240 240-107.45 240-240c-0.15-132.49-107.51-239.85-240-240zm100.69 40h-201.38c63.312-32 138.07-32 201.38 0zm-228.22 16h255.06c19.14 13.308 36.103 29.5 50.288 48h-355.64c14.185-18.5 31.149-34.692 50.288-48zm-61.467 64h378c9.576 15.022 17.318 31.137 23.061 48h-424.12c5.743-16.863 13.485-32.978 23.061-48zm-27.912 64h433.82c4.031 15.703 6.339 31.797 6.885 48h-447.59c0.546-16.203 2.855-32.297 6.885-48zm116.22 256h201.38c-63.312 32-138.07 32-201.38 0zm228.22-16h-255.07c-19.14-13.308-36.103-29.5-50.288-48h355.64c-14.184 18.5-31.148 34.692-50.287 48zm61.467-64h-378c-9.576-15.022-17.318-31.137-23.061-48h424.12c-5.742 16.863-13.484 32.978-23.06 48zm27.912-64h-433.82c-4.031-15.703-6.339-31.798-6.885-48h447.59c-0.546 16.202-2.855 32.297-6.885 48z" fill="#fff" style="" data-original="#000000"/>
	
</g>

</svg>
