<?xml version="1.0" encoding="UTF-8"?>
<svg class="" width="512" height="512" enable-background="new 0 0 512 512" version="1.1" viewBox="0 0 480 480" xml:space="preserve" xmlns="http://www.w3.org/2000/svg">
<g xmlns="http://www.w3.org/2000/svg">

		<path class="" d="m240.02 0h-9e-3 -4e-3c-132.55 0-240 107.45-240 240s107.45 240 240 240h4e-3 9e-3c132.55-0.012 239.99-107.47 239.98-240.02-0.012-132.53-107.45-239.96-239.98-239.98zm-224.01 240c0.107-91.128 55.335-173.14 139.74-207.49-50.017 41.617-83.733 119.01-83.733 207.49s33.716 165.88 83.733 207.49c-84.402-34.359-139.63-116.36-139.74-207.49zm72.004 0c0-103.67 48.048-191.09 113.05-216.51-31.267 41.055-49.05 129.84-49.05 216.51s17.783 175.46 49.05 216.51c-64.998-25.42-113.05-112.84-113.05-216.51zm144 222.29c-31.73-12.905-64.004-100.55-64.004-222.29s32.273-209.39 64.004-222.29v444.58zm16-3e-3v-444.58c31.728 12.916 63.996 100.56 63.996 222.29s-32.268 209.37-63.996 222.29zm30.943-5.772c31.269-41.053 49.053-129.84 49.053-216.52s-17.784-175.46-49.053-216.52c65.003 25.414 113.06 112.84 113.06 216.52s-48.054 191.1-113.06 216.52zm45.331-9.029c50.013-41.618 83.726-119.01 83.726-207.49s-33.713-165.87-83.727-207.49c114.59 46.506 169.78 177.1 123.28 291.69-22.751 56.058-67.218 100.52-123.28 123.28z" fill="#fff" style="" data-original="#000000"/>

</g>

</svg>
